<svg width="113" height="26" viewBox="0 0 113 26" fill="none" xmlns="http://www.w3.org/2000/svg">
<path fill-rule="evenodd" clip-rule="evenodd" d="M16.3983 10.3213V2.35862L14.3035 1.04408C12.8018 0.101722 10.8783 0.0928878 9.36756 1.02141L2.15303 5.4557C0.813139 6.27924 0 7.71806 0 9.2654V17.156C0 18.7558 0.868792 20.2354 2.28191 21.0421L9.49778 25.1613C10.9447 25.9872 12.7363 25.9793 14.1755 25.1405L21.1966 21.0484C22.5893 20.2367 23.4425 18.7683 23.4425 17.1831V9.23788C23.4425 7.70556 22.6449 6.27855 21.3259 5.45085L18.7863 3.85713V18.5188H19.0967C19.5045 18.5188 19.7103 18.529 20.022 18.68C20.3338 18.8311 20.5064 19.1761 20.5064 19.6001C20.5064 20.0241 20.3899 20.2707 20.2318 20.4253C20.0736 20.5799 19.6502 20.7194 19.3838 20.7194L16.927 20.7197C16.639 20.7194 16.4417 20.5644 16.371 20.479C16.3002 20.3936 16.251 20.2122 16.251 19.968V19.5057C15.7911 19.968 15.5203 20.1413 14.7711 20.479C14.022 20.8167 13.06 21.0209 12.186 21.0209C10.6128 21.0209 9.15793 20.4219 8.09664 19.3274C7.03535 18.2328 6.41312 16.6867 6.41312 15.0591C6.41312 13.3745 6.88153 11.9727 8.01357 10.8538C9.14562 9.73477 10.8894 8.92773 12.5791 8.92773C13.4365 8.92773 14.2064 9.06293 14.889 9.35997C15.5715 9.657 16.1215 10.0037 16.3983 10.3213ZM10.0093 12.244C9.28605 12.9153 9.01915 13.9471 9.01915 14.8901C9.01915 15.833 9.44657 16.8485 10.0093 17.43C10.572 18.0115 11.5816 18.5648 12.6479 18.5648C13.722 18.5648 14.7378 18.1272 15.4306 17.43C16.1233 16.7328 16.3734 15.6893 16.3858 14.7525C16.3983 13.8157 15.9326 12.839 15.2438 12.1532C14.555 11.4674 13.7298 11.2154 12.6479 11.2154C11.5504 11.2154 10.7325 11.5727 10.0093 12.244Z" fill="#222528"/>
<path fill-rule="evenodd" clip-rule="evenodd" d="M32.8596 20.3291C33.6629 20.0117 34.4058 19.5519 35.0883 18.9497L35.1882 19.6943C35.2382 19.9548 35.3381 20.1541 35.4879 20.2925C35.6377 20.4308 35.8292 20.5 36.0622 20.5H38.0225C38.3554 20.5 38.6052 20.4268 38.7716 20.2803C38.9381 20.1338 39.0213 19.9141 39.0213 19.6211C39.0213 19.3037 38.9215 19.084 38.7217 18.9619C38.5219 18.8398 38.1265 18.7788 37.5355 18.7788H36.9237V13.249C36.9237 11.8249 36.5492 10.7486 35.8 10.0203C35.0509 9.29191 33.9438 8.92773 32.4788 8.92773C31.0471 8.92773 29.8714 9.09456 28.9516 9.42822C28.0318 9.76188 27.5719 10.1688 27.5719 10.6489C27.5719 10.95 27.651 11.1962 27.8092 11.3875C27.9673 11.5787 28.1671 11.6743 28.4085 11.6743C28.6665 11.6743 29.1951 11.5034 29.9942 11.1616C30.7933 10.8198 31.5174 10.6489 32.1667 10.6489C33.1323 10.6489 33.8439 10.8727 34.3017 11.3203C34.7596 11.7679 34.9885 12.4596 34.9885 13.3955V13.481C34.4724 13.3507 33.9688 13.2551 33.4777 13.1941C32.9866 13.1331 32.4996 13.1025 32.0169 13.1025C30.1856 13.1025 28.7643 13.4565 27.753 14.1646C26.7416 14.8726 26.236 15.8695 26.236 17.1553C26.236 18.2376 26.6168 19.1165 27.3784 19.792C28.14 20.4675 29.141 20.8052 30.3812 20.8052C31.2303 20.8052 32.0564 20.6465 32.8596 20.3291ZM33.6587 14.781C34.0874 14.8502 34.5306 14.958 34.9885 15.1045V16.4229C34.9885 17.0088 34.5369 17.5723 33.6338 18.1135C32.7306 18.6547 31.7505 18.9253 30.6934 18.9253C29.9775 18.9253 29.3886 18.7463 28.9266 18.3882C28.4647 18.0301 28.2337 17.5744 28.2337 17.021C28.2337 16.3048 28.6041 15.7352 29.3449 15.312C30.0857 14.8888 31.0971 14.6772 32.3789 14.6772C32.8035 14.6772 33.23 14.7118 33.6587 14.781Z" fill="#222528"/>
<path d="M35.0883 18.9497L35.3967 18.9083L35.3193 18.3311L34.8825 18.7164L35.0883 18.9497ZM35.1882 19.6943L34.8799 19.7357L34.881 19.7444L34.8827 19.7529L35.1882 19.6943ZM36.9237 18.7788H36.6126V19.0899H36.9237V18.7788ZM35.8 10.0203L36.0169 9.7972V9.7972L35.8 10.0203ZM28.9516 9.42822L28.8455 9.13576L28.9516 9.42822ZM34.9885 13.481L34.9123 13.7826L35.2996 13.8803V13.481H34.9885ZM27.753 14.1646L27.5746 13.9097H27.5746L27.753 14.1646ZM34.9885 15.1045H35.2996V14.8774L35.0833 14.8082L34.9885 15.1045ZM33.6338 18.1135L33.7937 18.3804H33.7937L33.6338 18.1135ZM29.3449 15.312L29.1906 15.0419L29.3449 15.312ZM34.8825 18.7164C34.2255 19.2961 33.5133 19.7363 32.7453 20.0398L32.974 20.6184C33.8125 20.2871 34.5861 19.8078 35.2942 19.183L34.8825 18.7164ZM35.4966 19.653L35.3967 18.9083L34.78 18.9911L34.8799 19.7357L35.4966 19.653ZM35.6989 20.0639C35.6108 19.9825 35.535 19.8505 35.4938 19.6357L34.8827 19.7529C34.9414 20.059 35.0653 20.3257 35.2768 20.5211L35.6989 20.0639ZM36.0622 20.1889C35.8954 20.1889 35.7831 20.1416 35.6989 20.0639L35.2768 20.5211C35.4924 20.7201 35.7629 20.8111 36.0622 20.8111V20.1889ZM38.0225 20.1889H36.0622V20.8111H38.0225V20.1889ZM38.5661 20.0467C38.479 20.1233 38.3166 20.1889 38.0225 20.1889V20.8111C38.3943 20.8111 38.7313 20.7302 38.9772 20.5138L38.5661 20.0467ZM38.7102 19.6211C38.7102 19.855 38.6456 19.9768 38.5661 20.0467L38.9772 20.5138C39.2306 20.2908 39.3325 19.9731 39.3325 19.6211H38.7102ZM38.5595 19.2274C38.6351 19.2736 38.7102 19.3689 38.7102 19.6211H39.3325C39.3325 19.2385 39.2078 18.8944 38.8839 18.6964L38.5595 19.2274ZM37.5355 19.0899C37.8219 19.0899 38.0514 19.1048 38.2279 19.1321C38.4096 19.1601 38.5111 19.1978 38.5595 19.2274L38.8839 18.6964C38.7325 18.6039 38.5364 18.5501 38.3228 18.5171C38.1039 18.4833 37.8402 18.4677 37.5355 18.4677V19.0899ZM36.9237 19.0899H37.5355V18.4677H36.9237V19.0899ZM36.6126 13.249V18.7788H37.2349V13.249H36.6126ZM35.5832 10.2433C36.2528 10.8943 36.6126 11.8775 36.6126 13.249H37.2349C37.2349 11.7722 36.8456 10.6029 36.0169 9.7972L35.5832 10.2433ZM32.4788 9.23885C33.8957 9.23885 34.912 9.59082 35.5832 10.2433L36.0169 9.7972C35.1897 8.99299 33.9919 8.61662 32.4788 8.61662V9.23885ZM29.0577 9.72069C29.9316 9.40366 31.0681 9.23885 32.4788 9.23885V8.61662C31.0262 8.61662 29.8112 8.78546 28.8455 9.13576L29.0577 9.72069ZM27.883 10.6489C27.883 10.5215 27.9399 10.3787 28.123 10.2166C28.3114 10.0499 28.6154 9.88115 29.0577 9.72069L28.8455 9.13576C28.3681 9.30895 27.9822 9.51046 27.7107 9.75064C27.4339 9.99553 27.2608 10.2962 27.2608 10.6489H27.883ZM28.0489 11.1892C27.9462 11.0649 27.883 10.8937 27.883 10.6489H27.2608C27.2608 11.0064 27.3559 11.3275 27.5694 11.5857L28.0489 11.1892ZM28.4085 11.3632C28.2628 11.3632 28.1499 11.3113 28.0489 11.1892L27.5694 11.5857C27.7848 11.8461 28.0714 11.9854 28.4085 11.9854V11.3632ZM29.8718 10.8756C29.4767 11.0446 29.1544 11.1687 28.9027 11.2501C28.6422 11.3344 28.4853 11.3632 28.4085 11.3632V11.9854C28.5897 11.9854 28.8261 11.9288 29.0941 11.8422C29.371 11.7527 29.7125 11.6205 30.1165 11.4477L29.8718 10.8756ZM32.1667 10.3378C31.4637 10.3378 30.6972 10.5225 29.8718 10.8756L30.1165 11.4477C30.8893 11.1171 31.5711 10.96 32.1667 10.96V10.3378ZM34.5192 11.0979C33.9796 10.5703 33.173 10.3378 32.1667 10.3378V10.96C33.0915 10.96 33.7083 11.1752 34.0843 11.5428L34.5192 11.0979ZM35.2996 13.3955C35.2996 12.4146 35.0599 11.6264 34.5192 11.0979L34.0843 11.5428C34.4592 11.9094 34.6773 12.5046 34.6773 13.3955H35.2996ZM35.2996 13.481V13.3955H34.6773V13.481H35.2996ZM33.4393 13.5028C33.9168 13.5622 34.4078 13.6553 34.9123 13.7826L35.0646 13.1793C34.537 13.0462 34.0208 12.9481 33.5161 12.8854L33.4393 13.5028ZM32.0169 13.4137C32.4865 13.4137 32.9606 13.4433 33.4393 13.5028L33.5161 12.8854C33.0125 12.8228 32.5128 12.7914 32.0169 12.7914V13.4137ZM27.9314 14.4194C28.8708 13.7618 30.2202 13.4137 32.0169 13.4137V12.7914C30.151 12.7914 28.6579 13.1513 27.5746 13.9097L27.9314 14.4194ZM26.5471 17.1553C26.5471 15.966 27.0072 15.0664 27.9314 14.4194L27.5746 13.9097C26.476 14.6787 25.9249 15.7729 25.9249 17.1553H26.5471ZM27.5848 19.5592C26.8944 18.9469 26.5471 18.155 26.5471 17.1553H25.9249C25.9249 18.3203 26.3392 19.2862 27.172 20.0248L27.5848 19.5592ZM30.3812 20.4941C29.1997 20.4941 28.2778 20.1738 27.5848 19.5592L27.172 20.0248C28.0023 20.7611 29.0823 21.1163 30.3812 21.1163V20.4941ZM32.7453 20.0398C31.9778 20.343 31.1904 20.4941 30.3812 20.4941V21.1163C31.2701 21.1163 32.135 20.95 32.974 20.6184L32.7453 20.0398ZM35.0833 14.8082C34.6122 14.6575 34.1538 14.5458 33.7083 14.4739L33.6092 15.0881C34.021 15.1546 34.4491 15.2586 34.8936 15.4008L35.0833 14.8082ZM35.2996 16.4229V15.1045H34.6773V16.4229H35.2996ZM33.7937 18.3804C34.7162 17.8276 35.2996 17.1834 35.2996 16.4229H34.6773C34.6773 16.8342 34.3576 17.3171 33.4738 17.8467L33.7937 18.3804ZM30.6934 19.2364C31.8066 19.2364 32.842 18.9506 33.7937 18.3804L33.4738 17.8467C32.6192 18.3588 31.6944 18.6142 30.6934 18.6142V19.2364ZM28.736 18.6341C29.2639 19.0432 29.9244 19.2364 30.6934 19.2364V18.6142C30.0306 18.6142 29.5133 18.4493 29.1172 18.1423L28.736 18.6341ZM27.9226 17.021C27.9226 17.6767 28.203 18.2209 28.736 18.6341L29.1172 18.1423C28.7263 17.8393 28.5448 17.4721 28.5448 17.021H27.9226ZM29.1906 15.0419C28.3748 15.5079 27.9226 16.17 27.9226 17.021H28.5448C28.5448 16.4397 28.8334 15.9625 29.4992 15.5822L29.1906 15.0419ZM32.3789 14.3661C31.0681 14.3661 29.9963 14.5816 29.1906 15.0419L29.4992 15.5822C30.1752 15.196 31.1261 14.9884 32.3789 14.9884V14.3661ZM33.7083 14.4739C33.2636 14.4021 32.8204 14.3661 32.3789 14.3661V14.9884C32.7865 14.9884 33.1965 15.0216 33.6092 15.0881L33.7083 14.4739Z" fill="#222528"/>
<path fill-rule="evenodd" clip-rule="evenodd" d="M50.4589 9.9043C50.8668 9.9043 51.1643 9.97347 51.3516 10.1118C51.5389 10.2502 51.6325 10.4699 51.6325 10.771C51.6325 11.0558 51.5451 11.2694 51.3703 11.4119C51.1955 11.5543 50.9333 11.6255 50.5837 11.6255H45.527V15.7026C45.527 17.0373 45.7039 17.9162 46.0577 18.3394C46.4114 18.7625 47.017 18.9741 47.8743 18.9741C48.6318 18.9741 49.5391 18.7585 50.5962 18.3271C51.6534 17.8958 52.3068 17.6802 52.5565 17.6802C52.7896 17.6802 52.9872 17.7616 53.1496 17.9243C53.3119 18.0871 53.393 18.2865 53.393 18.5225C53.393 18.791 53.2911 19.025 53.0871 19.2244C52.8832 19.4237 52.5357 19.617 52.0446 19.8042C51.2288 20.1216 50.4943 20.3535 49.8408 20.5C49.1874 20.6465 48.5735 20.7197 47.9992 20.7197C47.0253 20.7197 46.2075 20.5671 45.5458 20.262C44.884 19.9568 44.3908 19.5031 44.0662 18.9009C43.8997 18.616 43.7811 18.2783 43.7103 17.8877C43.6396 17.4971 43.6042 16.8949 43.6042 16.0811V11.6255H41.4816C41.132 11.6255 40.8782 11.5584 40.72 11.4241C40.5619 11.2898 40.4828 11.0721 40.4828 10.771C40.4828 10.4373 40.591 10.2095 40.8074 10.0874C41.0238 9.96533 41.4858 9.9043 42.1933 9.9043H43.6042V6.75488C43.6042 6.40495 43.6812 6.14657 43.8352 5.97974C43.9892 5.81291 44.2285 5.72949 44.5531 5.72949C44.9194 5.72949 45.1733 5.83122 45.3148 6.03467C45.4563 6.23812 45.527 6.70198 45.527 7.42627V9.9043H50.4589Z" fill="#222528" stroke="#222528" stroke-width="0.622222"/>
<path fill-rule="evenodd" clip-rule="evenodd" d="M60.6602 18.7788H64.8054C65.1301 18.7788 65.3694 18.8459 65.5234 18.9802C65.6774 19.1145 65.7544 19.3281 65.7544 19.6211C65.7544 19.9548 65.6815 20.1847 65.5359 20.3108C65.3902 20.4369 65.1218 20.5 64.7305 20.5H56.5649C56.2402 20.5 55.9947 20.4268 55.8282 20.2803C55.6617 20.1338 55.5785 19.9141 55.5785 19.6211C55.5785 19.3363 55.6638 19.1247 55.8344 18.9863C56.0051 18.848 56.2694 18.7788 56.6273 18.7788H58.7998V10.9541H57.9508C57.1434 10.9541 56.6398 10.891 56.44 10.7649C56.2402 10.6388 56.1403 10.4089 56.1403 10.0752C56.1403 9.79036 56.2215 9.57674 56.3838 9.43433C56.5461 9.29191 56.7938 9.2207 57.1267 9.2207H59.9735C60.1982 9.2207 60.3688 9.26343 60.4854 9.34888C60.6019 9.43433 60.6602 9.55843 60.6602 9.72119V11.7964C61.451 10.828 62.275 10.1077 63.1324 9.63574C63.9897 9.16373 64.9137 8.92773 65.9042 8.92773C66.645 8.92773 67.2443 9.07422 67.7021 9.36719C68.1599 9.66016 68.3889 10.0386 68.3889 10.5024C68.3889 10.8035 68.2744 11.0701 68.0455 11.302C67.8166 11.5339 67.5648 11.6499 67.2901 11.6499C67.0987 11.6499 66.7761 11.5258 66.3225 11.2776C65.8688 11.0294 65.463 10.9053 65.1051 10.9053C64.4558 10.9053 63.7712 11.1311 63.0512 11.5828C62.3312 12.0344 61.5342 12.7485 60.6602 13.7251V18.7788Z" fill="#222528" stroke="#222528" stroke-width="0.622222"/>
<path fill-rule="evenodd" clip-rule="evenodd" d="M75.5686 5.70508C75.5686 4.82617 75.6498 4.27279 75.8121 4.04492C75.9744 3.81706 76.3219 3.70312 76.8546 3.70312C77.3707 3.70312 77.712 3.79875 77.8785 3.98999C78.0449 4.18123 78.1282 4.63492 78.1282 5.35107C78.1282 6.05095 78.0512 6.48429 77.8972 6.65112C77.7432 6.81795 77.3957 6.90137 76.8546 6.90137C76.3219 6.90137 75.9744 6.82406 75.8121 6.66943C75.6498 6.51481 75.5686 6.19336 75.5686 5.70508Z" fill="#222528" stroke="#222528" stroke-width="0.622222"/>
<path fill-rule="evenodd" clip-rule="evenodd" d="M77.8786 18.7788H81.8865C82.2111 18.7788 82.4504 18.8459 82.6044 18.9802C82.7584 19.1145 82.8354 19.3281 82.8354 19.6211C82.8354 19.9548 82.7626 20.1847 82.6169 20.3108C82.4712 20.4369 82.2028 20.5 81.8116 20.5H72.1226C71.7897 20.5 71.54 20.4268 71.3735 20.2803C71.207 20.1338 71.1238 19.9141 71.1238 19.6211C71.1238 19.3363 71.2112 19.1247 71.386 18.9863C71.5608 18.848 71.823 18.7788 72.1726 18.7788H75.9807V10.9541H73.546C73.2047 10.9541 72.9446 10.8788 72.7657 10.7283C72.5867 10.5777 72.4972 10.36 72.4972 10.0752C72.4972 9.79036 72.5804 9.57674 72.7469 9.43433C72.9134 9.29191 73.1631 9.2207 73.4961 9.2207H77.1544C77.3791 9.2207 77.556 9.26546 77.685 9.35498C77.8141 9.4445 77.8786 9.56657 77.8786 9.72119V18.7788Z" fill="#222528" stroke="#222528" stroke-width="0.622222"/>
<path fill-rule="evenodd" clip-rule="evenodd" d="M95.3091 9.95312V9.9043C95.3091 9.63574 95.3881 9.4384 95.5463 9.31226C95.7044 9.18612 95.95 9.12305 96.283 9.12305C96.6242 9.12305 96.8594 9.2207 96.9884 9.41602C97.1174 9.61133 97.1819 10.0142 97.1819 10.6245V12.895C97.1819 13.1961 97.1028 13.422 96.9447 13.5725C96.7865 13.7231 96.5493 13.7983 96.233 13.7983C96.0083 13.7983 95.8147 13.7353 95.6524 13.6091C95.4901 13.483 95.2924 13.2205 95.0594 12.8218C94.6598 12.1626 94.1749 11.6641 93.6048 11.3264C93.0346 10.9887 92.3791 10.8198 91.6383 10.8198C90.3397 10.8198 89.2847 11.1942 88.4731 11.9429C87.6616 12.6916 87.2558 13.66 87.2558 14.8481C87.2558 16.0607 87.6449 17.0515 88.4232 17.8206C89.2015 18.5896 90.2024 18.9741 91.426 18.9741C91.9837 18.9741 92.5143 18.8988 93.0179 18.7483C93.5215 18.5977 93.9981 18.3719 94.4475 18.0708C94.6057 17.9731 94.818 17.8226 95.0843 17.6191C95.6254 17.1878 96.0499 16.9722 96.3579 16.9722C96.6159 16.9722 96.8261 17.0515 96.9884 17.2102C97.1507 17.3689 97.2319 17.5744 97.2319 17.8267C97.2319 18.4696 96.6097 19.1267 95.3653 19.7981C94.1208 20.4695 92.7994 20.8052 91.401 20.8052C89.5948 20.8052 88.0902 20.2396 86.8874 19.1084C85.6846 17.9772 85.0833 16.5653 85.0833 14.8726C85.0833 13.1798 85.6826 11.7659 86.8812 10.6306C88.0798 9.49536 89.5781 8.92773 91.3761 8.92773C92.0087 8.92773 92.6434 9.01115 93.2801 9.17798C93.9169 9.34481 94.5932 9.60319 95.3091 9.95312Z" fill="#222528" stroke="#222528" stroke-width="0.622222"/>
<path fill-rule="evenodd" clip-rule="evenodd" d="M100.941 19.6211V17.4482C100.941 17.0902 101.009 16.8338 101.147 16.6792C101.284 16.5246 101.507 16.4473 101.815 16.4473C102.156 16.4473 102.426 16.6751 102.626 17.1309C102.759 17.4076 102.88 17.6151 102.988 17.7534C103.338 18.1929 103.854 18.5448 104.537 18.8093C105.219 19.0738 105.972 19.2061 106.796 19.2061C107.679 19.2061 108.386 19.0311 108.919 18.6812C109.452 18.3312 109.718 17.8714 109.718 17.3018C109.718 16.724 109.504 16.313 109.075 16.0688C108.646 15.8247 107.912 15.7026 106.871 15.7026H106.185C104.487 15.7026 103.192 15.4137 102.302 14.8359C101.411 14.2581 100.966 13.4199 100.966 12.3213C100.966 11.2471 101.401 10.4129 102.27 9.81885C103.14 9.22477 104.362 8.92773 105.935 8.92773C106.576 8.92773 107.229 9.01522 107.895 9.19019C108.561 9.36515 108.911 9.45264 108.944 9.45264C109.036 9.45264 109.21 9.37329 109.468 9.2146C109.726 9.05591 109.98 8.97656 110.23 8.97656C110.513 8.97656 110.723 9.07829 110.861 9.28174C110.998 9.48519 111.067 9.79036 111.067 10.1973V11.6255C111.067 12.0568 111 12.3681 110.867 12.5593C110.734 12.7506 110.521 12.8462 110.23 12.8462C109.98 12.8462 109.672 12.6387 109.306 12.2236C109.048 11.9388 108.836 11.7231 108.669 11.5767C108.228 11.1779 107.758 10.891 107.258 10.7161C106.759 10.5411 106.172 10.4536 105.498 10.4536C104.716 10.4536 104.085 10.6225 103.606 10.9602C103.128 11.2979 102.888 11.7272 102.888 12.248C102.888 12.7607 103.134 13.127 103.625 13.3467C104.116 13.5664 105.173 13.6925 106.796 13.7251C108.528 13.7658 109.793 14.0608 110.592 14.6101C111.391 15.1594 111.791 16.0078 111.791 17.1553C111.791 18.2539 111.35 19.1328 110.467 19.792C109.585 20.4512 108.395 20.7808 106.896 20.7808C106.422 20.7808 105.893 20.738 105.311 20.6526C104.728 20.5671 103.996 20.4227 103.113 20.2192C102.822 20.4064 102.572 20.5468 102.364 20.6404C102.156 20.734 101.981 20.7808 101.84 20.7808C101.548 20.7808 101.326 20.6811 101.172 20.4817C101.018 20.2823 100.941 19.9954 100.941 19.6211Z" fill="#222528" stroke="#222528" stroke-width="0.622222"/>
</svg>
