<?xml version="1.0" encoding="UTF-8"?>
<!DOCTYPE svg PUBLIC "-//W3C//DTD SVG 1.1//EN" "http://www.w3.org/Graphics/SVG/1.1/DTD/svg11.dtd">
<!-- Creator: CorelDRAW 2020 (64-Bit) -->
<svg xmlns="http://www.w3.org/2000/svg" xml:space="preserve" width="170mm" height="120mm" version="1.1" style="shape-rendering:geometricPrecision; text-rendering:geometricPrecision; image-rendering:optimizeQuality; fill-rule:evenodd; clip-rule:evenodd"
viewBox="0 0 17000 12000"
 xmlns:xlink="http://www.w3.org/1999/xlink"
 xmlns:xodm="http://www.corel.com/coreldraw/odm/2003">
 <defs>
  <style type="text/css">
   <![CDATA[
    .fil0 {fill:black;fill-rule:nonzero}
   ]]>
  </style>
 </defs>
<symbol id="q" viewBox="-364928.87 457198.73 16595.08 29699.99">
 <path class="fil0" d="M-348333.79 457200.71l0 4476.59 -3820.95 0c-954.74,0 -1610.38,190.16 -1964.95,546.7 -382.29,382.29 -546.7,982.47 -546.7,1856l0 1420.23 5787.88 -1.98 0 4912.36 -5787.88 1.98 0 16486.13 -6877.31 0 0 -16486.13 -3385.17 0 0 -4912.36 3385.17 -1.98 0 -1420.23c0,-2319.51 655.64,-4038.84 1964.95,-5132.23 1309.3,-1146.88 3301.98,-1747.06 6005.76,-1747.06l5239.2 1.98z"/>
</symbol>
<symbol id="m" viewBox="-326104.54 411252.49 21000 25493.8">
 <path class="fil0" d="M-326104.54 411252.5l10940.34 0c3173.66,0 5665.09,731.84 7422.92,2149.44 1757.83,1440.64 2636.74,3492.62 2636.74,6154.16 0,2686.36 -878.91,4736.56 -2636.74,6154.16 -1757.83,1440.64 -4249.26,2149.44 -7422.92,2149.44l-4396.34 -1.77 0 8888.36 -6544 0 0 -25493.8 0 0.01zm6544 4786.18l0 7130.54 3614.88 0c1293.56,0 2271.71,-292.38 2930.89,-878.91 708.8,-634.38 1073.83,-1562.91 1073.83,-2734.2 0,-1098.64 -366.8,-1952.75 -1073.83,-2539.28 -659.18,-634.38 -1635.56,-976.37 -2930.89,-976.37l-3614.88 -1.77 0 -0.01z"/>
</symbol>
<symbol id="a" viewBox="-335601.75 429631.8 20999.99 20597.27">
 <path class="fil0" d="M-314605.38 439930.45l0 1699.81 -14598.05 0c125.17,1474.86 649.45,2574.21 1600.03,3299.84 925.19,749.22 2200.5,1099.34 3800.54,1099.34 1324.29,0 2650.4,-150.57 4000.09,-500.69 1400.48,-399.1 2824.55,-999.57 4299.41,-1799.59l0 4800.1c-1474.86,600.47 -2949.72,1050.36 -4399.19,1300.71 -1474.86,250.35 -2975.12,399.1 -4498.96,399.1 -3550.19,0 -6300.36,-899.79 -8299.5,-2699.38 -1950.16,-1799.59 -2900.74,-4324.81 -2900.74,-7599.26 0,-3200.07 950.59,-5699.9 2900.74,-7499.48 1924.76,-1850.38 4600.55,-2799.15 8000.17,-2799.15 3049.5,0 5500.35,950.59 7299.93,2799.15 1850.38,1875.78 2799.15,4375.6 2799.15,7499.48l-3.63 0 0.01 0.02zm-6400.14 -2098.91c0,-1199.12 -375.52,-2149.71 -1099.34,-2900.74 -674.84,-725.64 -1549.24,-1099.34 -2599.6,-1099.34 -1275.31,0 -2274.88,375.52 -3000.52,1099.34 -749.22,674.84 -1199.12,1649.02 -1400.48,2900.74l8099.95 0 -0.01 0z"/>
</symbol>
<symbol id="k" viewBox="-406929.85 520203.8 21000.01 25000.94">
 <path class="fil0" d="M-385929.84 521538.2l0 6189.68c-971.06,-636.36 -2001.57,-1122.99 -3034.29,-1455.49 -1061.34,-394.15 -2153.51,-607.74 -3276.5,-607.74 -2124.88,0 -3763.13,667.19 -4976.41,1942.12 -1153.82,1213.27 -1699.91,2913.18 -1699.91,5097.51 0,2276.82 546.08,4005.35 1699.91,5218.62 1213.27,1213.27 2851.53,1821.01 4976.41,1821.01 1213.27,0 2336.27,-151.93 3397.61,-484.43 1032.71,-303.87 2001.57,-849.95 2913.18,-1578.8l0 6189.68c-1153.82,484.43 -2367.1,788.3 -3642.03,971.06 -1213.27,242.21 -2426.55,363.32 -3642.03,363.32 -4309.22,0 -7647.37,-1092.17 -10073.92,-3276.5 -2426.55,-2184.33 -3642.03,-5249.45 -3642.03,-9223.97 0,-3884.24 1213.27,-6918.53 3642.03,-9102.86 2426.55,-2245.99 5764.71,-3397.61 10073.92,-3397.61 1274.93,0 2488.2,121.11 3642.03,363.32 1213.27,242.21 2426.55,576.91 3642.03,971.06l0 0.02z"/>
</symbol>
<symbol id="c" viewBox="-355838.65 455321.87 21000.01 21850.47">
 <path class="fil0" d="M-344913.42 467309.24c-1431.56,0 -2491.75,265.53 -3182.52,742.72 -715.78,423.31 -1060.2,1114.07 -1060.2,2014.57 0,848.54 265.53,1537.38 848.54,2014.57 556.07,423.31 1379.6,636.89 2439.8,636.89 1192.96,0 2228.15,-423.31 3076.69,-1271.85 848.54,-902.42 1271.85,-2041.51 1271.85,-3394.17l0 -742.72 -3394.17 0 0.01 -0.01zm10074.77 -2545.63l0 11879.6 -6682.52 0 0 -3076.69c-848.54,1271.85 -1856.79,2201.21 -2968.94,2757.28 -1141.01,556.07 -2491.75,848.54 -4031.06,848.54 -2201.21,0 -3977.19,-583.01 -5302.91,-1802.91 -1352.67,-1271.85 -2014.57,-2916.99 -2014.57,-4985.43 0,-2385.93 848.54,-4163.83 2545.63,-5302.91 1697.09,-1114.07 4294.67,-1697.09 7848.54,-1697.09l3923.31 1.92 0 -531.06c0,-1060.2 -423.31,-1829.85 -1271.85,-2333.97 -794.67,-477.19 -2068.44,-742.72 -3817.48,-742.72 -1431.56,0 -2757.28,159.7 -4031.06,423.31 -1219.9,292.47 -2307.04,715.78 -3288.35,1271.85l0 -5091.26c1404.62,-265.53 2811.16,-531.06 4242.72,-742.72 1404.62,-211.65 2811.16,-317.48 4242.72,-317.48 3738.59,0 6416.99,742.72 8060.2,2228.15 1697.09,1485.43 2545.63,3898.3 2545.63,7211.65l0 1.92 -0.01 0.02z"/>
</symbol>
<symbol id="j" viewBox="-335503.8 418980.34 21000 27699.47">
 <path class="fil0" d="M-320804.16 429480.34l0 -10500 6300.36 0 0 27198.77 -6300.36 0 0 -2799.15c-874.4,1150.14 -1850.38,1975.55 -2900.74,2499.83 -999.57,524.27 -2175.1,800.02 -3499.4,800.02 -2400.05,0 -4399.19,-925.19 -5999.22,-2799.15 -1549.24,-1924.76 -2300.28,-4424.59 -2300.28,-7499.48 0,-3000.52 749.22,-5449.55 2300.28,-7399.71 1600.03,-1924.76 3599.17,-2900.74 5999.22,-2900.74 1324.29,0 2499.83,299.33 3499.4,899.79 1050.36,549.67 2024.53,1375.09 2900.74,2499.83l0 -0.01zm-4099.86 12698.69c1324.29,0 2325.67,-500.69 3000.52,-1500.26 725.64,-999.57 1099.34,-2425.45 1099.34,-4299.41 0,-1850.38 -375.52,-3249.05 -1099.34,-4199.64 -674.84,-999.57 -1674.41,-1500.26 -3000.52,-1500.26 -1349.69,0 -2374.65,500.69 -3100.29,1500.26 -674.84,950.59 -999.57,2349.26 -999.57,4199.64 0,1875.78 324.72,3299.84 999.57,4299.41 725.64,999.57 1750.6,1500.26 3100.29,1500.26z"/>
</symbol>
<symbol id="n" viewBox="-356031.5 457868.42 21000 21427.39">
 <path class="fil0" d="M-335031.51 466607.62l0 12686.25 -6716.36 0 0 -9700.34c0,-1839.12 -54.15,-3092.27 -106.36,-3730.45 -79.29,-692.33 -212.73,-1199.01 -425.45,-1492.96 -293.95,-425.45 -640.11,-746.48 -1065.57,-959.2 -425.45,-266.88 -932.13,-425.45 -1492.96,-425.45 -1438.81,0 -2531.45,533.75 -3305,1599.32 -798.69,1065.57 -1171.93,2558.52 -1171.93,4476.93l0 10234.09 -6716.36 -1.93 0 -20893.64 6714.43 0 0 3092.27c986.28,-1199.01 2051.85,-2078.92 3198.64,-2664.89 1119.72,-640.11 2370.94,-959.2 3730.45,-959.2 2398.01,0 4210.06,746.48 5436.14,2239.43 1278.29,1492.96 1918.41,3678.24 1918.41,6501.7l1.93 -1.93 -0.01 0z"/>
</symbol>
<symbol id="d" viewBox="-479746.73 615773.76 21000 28912.52">
 <path class="fil0" d="M-458746.73 624260.4c-863.8,-360.13 -1691.06,-647.2 -2445.26,-863.8 -790.73,-180.07 -1547.53,-287.06 -2301.73,-287.06 -2301.73,0 -4099.79,790.73 -5321.11,2301.73 -1257.86,1437.93 -1871.13,3559.59 -1871.13,6328.45l0 12946.56 -9060.77 0 0 -28194.85 9060.77 0 0 4603.45c1150.86,-1798.06 2445.26,-3165.53 3883.19,-4026.72 1511,-863.8 3345.59,-1294.4 5467.25,-1294.4 287.06,0 574.13,73.07 863.8,143.53 360.13,0 900.34,73.07 1581.46,143.53l143.53 8199.58z"/>
</symbol>
<symbol id="u" viewBox="-317276.28 397495.23 21000 25631.4">
 <path class="fil0" d="M-296276.28 421328.29c-1206.32,567.98 -2434.96,1017.57 -3689.33,1324.73 -1276.68,307.16 -2601.41,473.61 -3972.46,473.61 -4114.89,0 -7354.63,-1134.25 -9743.26,-3404.48 -2412.65,-2316.56 -3594.95,-5437.9 -3594.95,-9364.03 0,-3972.46 1182.3,-7093.81 3594.95,-9364.03 2388.63,-2316.56 5628.37,-3498.86 9743.26,-3498.86 1371.06,0 2695.78,164.73 3972.46,473.61 1252.66,331.18 2483,804.79 3689.33,1419.1l0 5108.43c-1206.32,-804.79 -2364.6,-1419.1 -3498.86,-1796.62 -1134.25,-377.51 -2340.58,-567.98 -3594.95,-567.98 -2270.22,0 -4066.84,732.72 -5391.57,2175.85 -1324.73,1465.44 -1987.09,3476.55 -1987.09,6053.93 0,2531.05 662.36,4516.42 1987.09,5959.55 1324.73,1465.44 3121.34,2175.85 5391.57,2175.85 1252.66,0 2458.98,-188.76 3594.95,-567.98 1135.97,-379.23 2294.25,-945.5 3498.86,-1702.24l0 5101.57 0 -0.01z"/>
</symbol>
<symbol id="b" viewBox="-396777.51 498690.28 18696.68 29700">
 <path class="fil0" d="M-385772.01 498690.28l0 6508.41 7691.18 0 0 5323.5 -7691.18 2.15 0 9820.58c0,1124.8 178.17,1863.23 592.45,2247.46 472.25,326.28 1330.88,472.25 2603.79,472.25l3784.41 2.15 0 5323.5 -6272.29 0c-2927.93,0 -5029.42,-592.45 -6270.14,-1775.22 -1182.76,-1242.87 -1775.22,-3342.22 -1775.22,-6270.14l0 -9820.58 -3668.5 0 0 -5323.5 3668.5 -2.15 0 -6508.41 7336.99 0 0.01 0z"/>
</symbol>
<symbol id="i" viewBox="-334160.71 419051.72 21000 27704.25">
 <path class="fil0" d="M-323760.5 442254.41c1324.52,0 2349.66,-500.78 3100.83,-1500.52 725.76,-999.74 1099.53,-2425.87 1099.53,-4300.16 0,-1850.7 -375.58,-3249.61 -1099.53,-4200.36 -749.35,-999.74 -1774.49,-1500.52 -3100.83,-1500.52 -1349.92,0 -2375.06,500.78 -3100.83,1500.52 -674.96,950.75 -999.74,2349.66 -999.74,4200.36 0,1876.1 324.78,3300.41 999.74,4300.16 725.76,999.74 1750.91,1500.52 3100.83,1500.52zm-4100.57 -12700.88c850.96,-1124.94 1799.9,-1950.49 2799.64,-2500.26 1050.54,-600.57 2249.87,-899.95 3599.79,-899.95 2449.46,0 4450.75,974.34 6000.26,2901.24 1525.92,1950.49 2300.67,4399.95 2300.67,7400.99 0,3075.43 -774.75,5575.69 -2300.67,7500.78 -1549.51,1876.1 -3550.8,2799.64 -6000.26,2799.64 -1349.92,0 -2551.06,-275.79 -3599.79,-800.16 -999.74,-524.36 -1950.49,-1349.92 -2799.64,-2500.26l0 2799.64 -6299.64 0 0 -27203.47 6299.64 0 0 10501.81z"/>
</symbol>
<symbol id="l" viewBox="-282180.05 354406.47 8934.54 29700">
 <path class="fil0" d="M-278605.93 360873.86l5360.42 0 0 16424.01c0,2212.41 -552.72,3872.1 -1616.46,5020.76 -1085.36,1191.89 -2638.52,1787.84 -4681.1,1787.84l-2636.98 0 0 -3489.21 935.6 0c1020.52,0 1701.38,-234.67 2042.58,-680.86 382.89,-467.8 595.95,-1340.11 595.95,-2638.52l0 -16424.01 -0.01 -0.01zm0 -6467.39l5360.42 0 0 4339.9 -5360.42 0 0 -4339.9z"/>
</symbol>
<symbol id="f" viewBox="-299772.14 378327.1 21000 23422.52">
 <polygon class="fil0" points="-299772.14,378327.1 -293041.85,378327.1 -284515.84,394390.91 -284515.84,378327.1 -278772.14,378327.1 -278772.14,401749.62 -285504.06,401749.62 -294030.07,385685.81 -294030.07,401749.62 -299772.14,401749.62 "/>
</symbol>
<symbol id="h" viewBox="-356031.5 446514.62 21000 28996.59">
 <path class="fil0" d="M-335031.51 462823.02l0 12686.25 -6716.36 0 0 -9700.34c0,-1839.12 -54.15,-3092.27 -106.36,-3730.45 -79.29,-692.33 -212.73,-1199.01 -425.45,-1492.96 -293.95,-425.45 -640.11,-746.48 -1065.57,-959.2 -425.45,-266.88 -932.13,-425.45 -1492.96,-425.45 -1438.81,0 -2531.45,533.75 -3305,1599.32 -798.69,1065.57 -1171.93,2558.52 -1171.93,4476.93l0 10234.09 -6716.36 -1.93 0 -28994.66 6714.43 0 0 11193.3c986.28,-1199.01 2051.85,-2078.92 3198.64,-2664.89 1119.72,-640.11 2370.94,-959.2 3730.45,-959.2 2398.01,0 4210.06,746.48 5436.14,2239.43 1278.29,1492.96 1918.41,3678.24 1918.41,6501.7l1.93 -1.93 -0.01 -0.01z"/>
</symbol>
<symbol id="g" viewBox="-317182.8 402237.7 21000.01 25706.34">
 <path class="fil0" d="M-317182.79 402237.7l5932.89 0 4989.91 12523.47 4142.6 -12523.47 5934.6 0 -7721.47 20244.94c-823.4,2000.41 -1766.37,3413.16 -2825.51,4236.56 -1013.02,801.19 -2354.02,1224.84 -4048.65,1224.84l-3389.25 0 0 -3860.73 1788.58 0c989.1,0 1718.54,-164 2166.11,-471.49 493.7,-329.7 871.23,-895.14 1129.18,-1694.62l187.91 -471.49 -8286.91 -19208 0.01 -0.01z"/>
</symbol>
<symbol id="t" viewBox="-295057.09 369039.36 21000 22838.24">
 <polygon class="fil0" points="-295057.09,369039.36 -274057.09,369039.36 -274057.09,373501.61 -281581.46,373503.19 -281581.46,391877.6 -287531.12,391877.6 -287531.12,373503.19 -295057.09,373503.19 "/>
</symbol>
<symbol id="o" viewBox="-356246.18 458397.33 21000 21429.32">
 <path class="fil0" d="M-356246.17 471191.88l0 -12792.61 6716.36 0 0 2131.14 0 4264.2 0 3411.36c0,1651.53 27.07,2852.47 106.36,3624.09 54.15,719.4 212.73,1253.15 425.45,1599.32 266.88,425.45 640.11,798.69 1065.57,1065.57 425.45,212.73 906.99,319.09 1492.96,319.09 1411.73,0 2504.37,-533.75 3305,-1599.32 773.55,-1065.57 1171.93,-2558.52 1171.93,-4476.93l0 -10340.46 6716.36 1.93 0 20893.64 -6714.43 0 0 -2983.98c-1013.35,1226.08 -2078.92,2106 -3198.64,2664.89 -1146.79,558.89 -2398.01,852.84 -3730.45,852.84 -2425.09,0 -4264.2,-746.48 -5542.5,-2239.43 -1226.08,-1492.96 -1812.05,-3624.09 -1812.05,-6395.34l-1.93 0 0.01 0z"/>
</symbol>
<symbol id="r" viewBox="-357582.78 457231.83 6877.77 29700">
 <path class="fil0" d="M-357582.78 465529.92l6877.77 0 0 21401.91 -6877.77 0 0 -21401.91zm0 -8298.09l6877.77 0 0 5568.38 -6877.77 0 0 -5568.38z"/>
</symbol>
<symbol id="s" viewBox="-335503.8 426181.41 21000 27697.67">
 <path class="fil0" d="M-320804.16 442880.18c-874.4,1150.14 -1850.38,1975.55 -2900.74,2499.83 -999.57,549.67 -2175.1,800.02 -3499.4,800.02 -2400.05,0 -4399.19,-925.19 -5999.22,-2799.15 -1549.24,-1850.38 -2300.28,-4250.43 -2300.28,-7200.16 0,-2924.33 749.22,-5324.38 2300.28,-7200.16 1600.03,-1850.38 3599.17,-2799.15 5999.22,-2799.15 1324.29,0 2499.83,275.74 3499.4,800.02 1050.36,549.67 2024.53,1375.09 2900.74,2499.83l0 -2900.74 6300.36 0 0 17598.57c0,3125.69 -999.57,5523.93 -3000.52,7200.16 -1950.16,1649.02 -4800.1,2499.83 -8600.64,2499.83 -1199.12,0 -2400.05,-99.78 -3599.17,-299.33 -1150.14,-150.57 -2274.88,-399.1 -3399.62,-800.02l0 -4899.88c1050.36,649.45 2124.31,1124.74 3200.07,1400.48 1050.36,324.72 2124.31,500.69 3200.07,500.69 2049.93,0 3550.19,-475.29 4498.96,-1400.48 925.19,-874.4 1400.48,-2249.48 1400.48,-4199.64l0 -1300.71 0.01 -0.01zm-4099.86 -12199.81c-1275.31,0 -2274.88,500.69 -3000.52,1500.26 -749.22,950.59 -1099.34,2274.88 -1099.34,4000.09 0,1799.59 324.72,3174.67 999.57,4099.86 725.64,950.59 1750.6,1400.48 3100.29,1400.48 1324.29,0 2325.67,-449.9 3000.52,-1400.48 725.64,-999.57 1099.34,-2349.26 1099.34,-4099.86 0,-1725.21 -375.52,-3049.5 -1099.34,-4000.09 -674.84,-999.57 -1674.41,-1500.26 -3000.52,-1500.26z"/>
</symbol>
<symbol id="p" viewBox="-223427.75 288619.46 21000.02 13401.69">
 <path class="fil0" d="M-211293.64 291152.24c483.82,-799.5 1083.75,-1416.37 1799.79,-1866.32 749.91,-433.01 1566.35,-666.46 2466.25,-666.46 1467.17,0 2600.51,466.88 3400.01,1400.65 799.5,933.76 1199.86,2300.54 1199.86,4066.47l0 7934.57 -4199.52 -1.21 0 -6801.23 0 -266.1 0 -533.41c0,-933.76 -133.05,-1600.22 -400.36,-2000.58 -267.31,-400.36 -717.26,-599.93 -1332.91,-599.93 -799.5,0 -1433.3,333.83 -1866.32,1000.29 -400.36,633.8 -599.93,1566.35 -599.93,2800.08l0 6400.88 -4200.73 0 0 -6801.23c0,-1467.17 -133.05,-2399.72 -400.36,-2800.08 -233.44,-400.36 -666.46,-599.93 -1332.91,-599.93 -799.5,0 -1433.3,333.83 -1866.32,1000.29 -400.36,633.8 -599.93,1566.35 -599.93,2800.08l0 6400.88 -4200.73 0 0 -13067.85 4199.52 0 0 1934.05c483.82,-749.91 1066.81,-1300.25 1733.27,-1666.74 666.46,-400.36 1400.65,-599.93 2200.15,-599.93 882.96,0 1666.74,233.44 2333.2,666.46 700.32,449.95 1266.39,1066.81 1666.74,1866.32l1.21 0 0.02 -0.02z"/>
</symbol>
<symbol id="e" viewBox="-326304.33 417820.79 21000 20023.01">
 <path class="fil0" d="M-315804.33 422194.32c-1361.44,0 -2405.44,486.73 -3110.85,1458.43 -656.03,971.7 -971.7,2380.75 -971.7,4179.54 0,1823.48 315.67,3207.84 971.7,4179.54 705.41,971.7 1749.41,1458.43 3110.85,1458.43 1361.44,0 2357.83,-486.73 3013.86,-1458.43 705.41,-971.7 1068.69,-2357.83 1068.69,-4179.54 0,-1798.79 -365.05,-3207.84 -1068.69,-4179.54 -656.03,-971.7 -1652.42,-1458.43 -3013.86,-1458.43zm0 -4373.53c3304.84,0 5856.65,924.08 7680.13,2721.11 1871.1,1749.41 2819.87,4179.54 2819.87,7290.39 0,3183.15 -947.01,5637.97 -2819.87,7387.39 -1823.48,1749.41 -4373.53,2624.12 -7680.13,2624.12 -3257.22,0 -5807.27,-874.71 -7680.13,-2624.12 -1895.78,-1749.41 -2819.87,-4204.23 -2819.87,-7387.39 0,-3110.85 924.08,-5540.98 2819.87,-7290.39 1871.1,-1798.79 4422.91,-2721.11 7680.13,-2721.11z"/>
</symbol>
 <g id="Слой_x0020_1">
  <metadata id="CorelCorpID_0Corel-Layer"/>
  <g id="_2471377562592">
   <path class="fil0" d="M13789.13 3961.17c-3228.06,-2437.87 -7404.45,-2433.88 -10628.49,11.85l-2647.21 2007.13 2568.26 1991.39c3267.6,2528.71 7534.98,2528.71 10802.41,0l2568.26 -1991.39 -2663.23 -2018.98zm-5310.36 4816.48c-1533.07,0 -2777.56,-1244.64 -2777.56,-2777.56 0,-1533.07 1244.64,-2777.56 2777.56,-2777.56 1533.07,0 2777.56,1244.64 2777.56,2777.56 0.14,1533.07 -1240.51,2777.56 -2777.56,2777.56z"/>
   <path class="fil0" d="M13990.92 3621.1c-2086.22,-1564.64 -4741.33,-2216.57 -7301.79,-1694.99 -1272.19,260.72 -2489.16,810.01 -3540.12,1568.63 -454.34,327.97 -892.95,671.65 -1335.44,1011.48 -497.88,379.38 -995.64,754.63 -1493.52,1134 -177.77,134.36 -304.27,446.48 -78.96,620.39 671.65,521.58 1347.29,1043.02 2018.95,1564.64 296.28,229.17 588.72,466.2 892.95,683.51 742.77,537.28 1560.62,960.08 2426.05,1264.36 1659.43,580.85 3488.8,647.95 5187.6,197.61 888.96,-237.02 1750.38,-612.39 2532.7,-1098.44 414.94,-260.72 802,-557.14 1189.25,-857.43 750.75,-584.69 1505.37,-1165.54 2256.12,-1750.38 225.17,-173.91 98.81,-486.02 -78.96,-620.39 -897.11,-679.52 -1786.08,-1351.17 -2675.04,-2022.97 -169.91,-130.36 -442.49,-27.7 -541.3,142.21 -118.51,201.47 -27.7,410.92 142.21,541.3 888.96,671.65 1777.93,1343.31 2667.07,2015.1 -27.7,-205.46 -51.4,-414.94 -78.96,-620.39 -647.95,501.76 -1292.05,1003.62 -1940,1501.39 -154.07,122.51 -312.13,241.02 -466.2,363.54 -43.41,31.56 -86.95,67.11 -126.5,98.81 -7.85,7.85 -19.71,15.85 -27.7,23.7 55.26,-43.41 -51.4,35.55 -82.96,63.25 -695.36,517.6 -1465.83,948.23 -2283.67,1240.65 -1568.63,560.99 -3275.47,640.12 -4883.5,201.47 -829.73,-225.17 -1612.02,-580.85 -2339.09,-1039.18 -189.62,-122.51 -375.39,-248.87 -557.14,-383.22 -23.7,-15.85 -177.77,-134.36 -106.66,-78.96 -7.85,-7.85 -19.71,-15.85 -27.7,-19.71 -106.66,-82.96 -217.32,-169.91 -323.98,-252.87 -738.89,-572.84 -1477.68,-1141.84 -2212.59,-1714.82 -27.7,205.46 -51.4,414.94 -78.96,620.39 873.27,-663.79 1746.39,-1327.61 2623.5,-1987.41 1837.2,-1386.84 4152.55,-2082.2 6444.19,-1694.99 1390.86,237.02 2678.92,821.87 3805.06,1667.44 169.91,126.5 442.49,27.7 541.3,-142.21 114.52,-209.46 23.7,-418.92 -146.21,-545.43l0 -0.08z"/>
   <path class="fil0" d="M8479.12 8382.54c-971.94,-7.85 -1896.6,-612.39 -2232.41,-1540.93 -347.68,-960.08 -63.25,-2026.95 715.19,-2682.77 758.61,-640.12 1884.75,-711.2 2734.17,-205.46 841.55,501.76 1319.6,1513.24 1126.14,2485.28 -217.32,1122.01 -1197.26,1932.02 -2343.08,1943.88 -509.73,4 -509.73,794.17 0,790.15 1335.44,-11.85 2516.86,-845.57 2983.05,-2098.07 458.33,-1220.93 59.26,-2686.76 -948.23,-3508.62 -1035.19,-845.57 -2516.86,-983.79 -3670.65,-284.43 -1149.84,695.36 -1726.67,2050.66 -1469.81,3362.39 288.42,1465.83 1631.88,2512.84 3105.54,2528.71 509.73,4 509.73,-786.17 0,-790.15l0.09 0.02z"/>
  </g>
 </g>
</svg>
