<?xml version="1.0" encoding="UTF-8"?>
<!DOCTYPE svg PUBLIC "-//W3C//DTD SVG 1.1//EN" "http://www.w3.org/Graphics/SVG/1.1/DTD/svg11.dtd">
<!-- Creator: CorelDRAW 2020 (64-Bit) -->
<svg xmlns="http://www.w3.org/2000/svg" xml:space="preserve" width="170mm" height="120mm" version="1.1" style="shape-rendering:geometricPrecision; text-rendering:geometricPrecision; image-rendering:optimizeQuality; fill-rule:evenodd; clip-rule:evenodd"
viewBox="0 0 17000 12000"
 xmlns:xlink="http://www.w3.org/1999/xlink"
 xmlns:xodm="http://www.corel.com/coreldraw/odm/2003">
 <defs>
  <style type="text/css">
   <![CDATA[
    .fil1 {fill:black}
    .fil0 {fill:black;fill-rule:nonzero}
   ]]>
  </style>
 </defs>
<symbol id="f" viewBox="-30712.31 9243.22 21000.01 25616.79">
 <path class="fil0" d="M-9712.3 33027.71c-1167.94,605.44 -2385.74,1061.3 -3655.71,1369.7 -1269.97,308.4 -2592.11,462.6 -3964.11,462.6 -4113.7,0 -7372.47,-1147.53 -9778.95,-3447.04 -2401.54,-2297.2 -3601.24,-5415.43 -3601.24,-9352.22 0,-3941.4 1199.7,-7061.93 3601.24,-9361.44 2406.15,-2304.11 5664.92,-3456.09 9778.95,-3456.09 1372,0 2694.14,154.2 3964.11,462.6 1269.97,308.4 2487.77,768.7 3655.71,1378.75l0 5107.2c-1179.29,-802.76 -2344.93,-1392.41 -3492.46,-1768.94 -1142.92,-374.23 -2349.53,-562.49 -3619.5,-562.49 -2267.74,0 -4054.79,730.19 -5361.12,2186.12 -1301.73,1451.32 -1950.29,3456.09 -1950.29,6013.97 0,2546.69 648.56,4549.15 1950.29,6005.24 1306.17,1451.32 3093.22,2177.07 5361.12,2177.07 1269.97,0 2476.42,-185.96 3619.5,-562.49 1147.53,-374.23 2313.16,-963.87 3492.46,-1768.94l0 5116.41 0 -0.01z"/>
</symbol>
<symbol id="c" viewBox="-31123.61 8493.09 20999.99 27702.02">
 <path class="fil0" d="M-20709.81 31650.57c1335.32,0 2354.03,-489 3058.92,-1467.18 709.59,-978.18 1064.46,-2399.61 1064.46,-4267.08 0,-1865.03 -354.71,-3289.07 -1064.46,-4267.08 -704.71,-978.18 -1723.6,-1467.18 -3058.92,-1467.18 -1342.45,0 -2373.34,493.87 -3087.63,1476.75 -716.72,985.31 -1074.03,2404.48 -1074.03,4257.51 0,1855.46 357.14,3274.63 1074.03,4257.51 714.46,985.31 1745.17,1476.75 3087.63,1476.75zm-4161.48 -12676.5c863.02,-1136.31 1817.02,-1977.76 2867.04,-2521.91 1047.59,-541.71 2253.49,-815.01 3615.07,-815.01 2416.49,0 4396.51,958.87 5945.1,2876.61 1546.16,1917.74 2320.46,4386.94 2320.46,7402.37 0,3018.22 -774.3,5484.98 -2320.46,7402.37 -1548.6,1917.74 -3528.79,2876.61 -5945.1,2876.61 -1361.59,0 -2567.48,-273.29 -3615.07,-815.01 -1050.03,-541.71 -2004.03,-1383.16 -2867.04,-2521.91l0 2828.77 -6252.32 0.17 0 -27194.04 6252.32 0 0 10480.95 0 0.03z"/>
</symbol>
<symbol id="a" viewBox="-26720.75 8999.71 6828.34 29700">
 <path class="fil0" d="M-26720.75 17325.35l6828.34 0 0 21374.36 -6828.34 0 0 -21374.36zm0 -8325.64l6828.34 0 0 5571.39 -6828.34 -0.19 0 -5571.2z"/>
</symbol>
<symbol id="b" viewBox="-30473.61 8685.8 21000 26587.95">
 <polygon class="fil0" points="-30473.61,8685.8 -24360.8,8685.8 -24360.8,23160.89 -17320.38,16139.01 -10213.97,16139.01 -19560.83,24914.07 -9473.61,35273.75 -16889.06,35273.75 -24360.8,27295.51 -24360.8,35273.75 -30473.61,35273.75 "/>
</symbol>
<symbol id="e" viewBox="-38267.84 12900.84 18697.43 29700">
 <path class="fil0" d="M-27196.82 12900.84l0 6572.22 7626.41 0 0 5280.39 -7626.41 0.21 0 9812.9c0,1073.72 209.69,1798.98 634.61,2175.6 430.68,379.7 1280.53,566.56 2549.54,566.56l3796.14 0.21 0 5291.91 -6334.37 -0.21c-2923.48,0 -4994.44,-606.24 -6209.8,-1824.27 -1218.24,-1223.79 -1824.27,-3291.87 -1824.27,-6209.8l0 -9812.9 -3682.87 0 0 -5280.39 3682.87 0 0 -6572.22 7388.15 -0.21z"/>
</symbol>
<symbol id="d" viewBox="-32509.22 8492.25 21000 27689.57">
 <path class="fil0" d="M-17806.51 18968.25l0 -10475.83 6297.29 -0.17 0 27181.66 -6297.29 0 0 -2827.48c-857.76,1150.23 -1806.63,1993.55 -2846.61,2530.32 -1035.12,536.77 -2233.16,805.07 -3594.3,805.07 -2410.52,0 -4389.64,-958.43 -5942.4,-2875.3 -1547.89,-1916.87 -2319.4,-4382.51 -2319.4,-7399 0,-3014.41 771.51,-5482.48 2319.4,-7399 1552.76,-1916.87 3531.88,-2875.3 5942.4,-2875.3 1346.71,0 2542.32,273.17 3584.74,814.63 1047.11,543.9 1998.42,1384.97 2856.18,2520.76l0 -0.35 -0.01 -0.01zm-4121.51 12670.56c1341.84,0 2362.7,-488.78 3067.09,-1466.52 702.13,-977.73 1054.42,-2398.52 1054.42,-4265.14 0,-1864.18 -352.28,-3287.58 -1054.42,-4265.14 -704.39,-977.73 -1725.25,-1466.52 -3067.09,-1466.52 -1329.84,0 -2345.83,488.78 -3047.97,1466.52 -704.39,977.73 -1054.42,2400.95 -1054.42,4265.14 0,1866.62 349.85,3287.58 1054.42,4265.14 702.13,977.73 1718.12,1466.52 3047.97,1466.52z"/>
</symbol>
 <g id="Слой_x0020_1">
  <metadata id="CorelCorpID_0Corel-Layer"/>
  <g id="_2471381778272">
   <path class="fil1" d="M10713.53 2483.37c-975.25,-321.08 -2008.89,-424.99 -3028.67,-304.41 -1019.6,120.58 -2000.5,462.88 -2873.9,1002.66 -2114.34,1311.63 -4430.54,2748.21 -4430.54,2748.21l-0.13 0.01c-181.49,112.86 -291.59,311.71 -290.77,525.46 0.83,213.73 112.45,411.76 294.9,523.1l3624.79 2209.13 -1712.35 1712.35c-115.89,115.34 -181.07,272.02 -181.35,435.47 -0.14,163.43 64.63,320.26 180.25,435.86 115.62,115.48 272.44,180.39 435.86,180.11 163.43,-0.14 320.12,-65.46 435.33,-181.21l10664.47 -10664.12c115.89,-115.34 181.07,-272.16 181.21,-435.61 0.28,-163.43 -64.63,-320.26 -180.25,-435.86 -115.75,-115.62 -272.58,-180.39 -436,-180.11 -163.57,0.14 -320.26,65.46 -435.47,181.35l-2247.38 2247.61zm2284.24 1196.7l-2299.41 2299.79c174.18,758.33 -54.16,1552.79 -604.27,2102.87 -550.11,550.08 -1344.68,778.3 -2103.01,603.85l-1692.63 1692.63 0 0.14c972.61,326.46 2004.77,436.56 3024.26,322.32 1019.46,-114.1 2001.73,-449.65 2877.89,-983.23 2099.73,-1283.23 4414.31,-2698.19 4414.31,-2698.19 181.49,-110.79 292.83,-307.58 294.49,-520.21 1.66,-212.63 -106.52,-411.06 -286.36,-524.62l-3625.27 -2295.35zm-4072.47 591.6c-734.91,-140.56 -1491.72,92.05 -2020.75,621.07 -529.17,529.17 -761.79,1285.98 -621.21,2020.89l2641.96 -2641.96z"/>
  </g>
 </g>
</svg>
